<?xml version="1.0" encoding="UTF-8"?>
<svg width="813px" height="217px" viewBox="0 0 813 217" version="1.1" xmlns="http://www.w3.org/2000/svg" xmlns:xlink="http://www.w3.org/1999/xlink">
    <!-- Generator: Sketch 46.2 (44496) - http://www.bohemiancoding.com/sketch -->
    <title>Untitled</title>
    <desc>Created with Sketch.</desc>
    <defs></defs>
    <g id="Page-1" stroke="none" stroke-width="1" fill="none" fill-rule="evenodd">
        <g id="pixel-logo" transform="translate(2.000000, 2.000000)">
            <g id="Group">
                <polygon id="Shape" fill="#CCCCCC" fill-rule="nonzero" points="2.465879 2.2703414 42.660109 2.2703414 42.660109 43.8687684 2.465879 43.8687684"></polygon>
                <polygon id="Shape" fill="#B7B7B7" fill-rule="nonzero" points="42.660107 2.2703414 82.854332 2.2703414 82.854332 43.8687684 42.660107 43.8687684"></polygon>
                <polygon id="Shape" fill="#999999" fill-rule="nonzero" points="82.85433 2.2703414 123.04855 2.2703414 123.04855 43.8687684 82.85433 43.8687684"></polygon>
                <polygon id="Shape" fill="#999999" fill-rule="nonzero" points="123.04855 2.2703414 163.24278 2.2703414 163.24278 43.8687684 123.04855 43.8687684"></polygon>
                <polygon id="Shape" fill="#999999" fill-rule="nonzero" points="203.43701 2.2703414 243.63124 2.2703414 243.63124 43.8687684 203.43701 43.8687684"></polygon>
                <polygon id="Shape" fill="#B7B7B7" fill-rule="nonzero" points="283.82547 2.2703414 324.019684 2.2703414 324.019684 43.8687684 283.82547 43.8687684"></polygon>
                <polygon id="Shape" fill="#CCCCCC" fill-rule="nonzero" points="444.60236 2.2703414 484.796604 2.2703414 484.796604 43.8687684 444.60236 43.8687684"></polygon>
                <polygon id="Shape" fill="#B7B7B7" fill-rule="nonzero" points="524.9908 2.2703414 565.185075 2.2703414 565.185075 43.8687684 524.9908 43.8687684"></polygon>
                <polygon id="Shape" fill="#CCCCCC" fill-rule="nonzero" points="565.18506 2.2703414 605.379274 2.2703414 605.379274 43.8687684 565.18506 43.8687684"></polygon>
                <polygon id="Shape" fill="#D9D9D9" fill-rule="nonzero" points="605.3793 2.2703414 645.573514 2.2703414 645.573514 43.8687684 605.3793 43.8687684"></polygon>
                <polygon id="Shape" fill="#999999" fill-rule="nonzero" points="685.7677 2.2703414 725.961914 2.2703414 725.961914 43.8687684 685.7677 43.8687684"></polygon>
                <polygon id="Shape" fill="#B7B7B7" fill-rule="nonzero" points="2.465879 43.868767 42.660109 43.868767 42.660109 85.467194 2.465879 85.467194"></polygon>
                <polygon id="Shape" fill="#666666" fill-rule="nonzero" points="123.04855 43.868767 163.24278 43.868767 163.24278 85.467194 123.04855 85.467194"></polygon>
                <polygon id="Shape" fill="#666666" fill-rule="nonzero" points="203.43701 43.868767 243.63124 43.868767 243.63124 85.467194 203.43701 85.467194"></polygon>
                <polygon id="Shape" fill="#999999" fill-rule="nonzero" points="324.01968 43.868767 364.213894 43.868767 364.213894 85.467194 324.01968 85.467194"></polygon>
                <polygon id="Shape" fill="#999999" fill-rule="nonzero" points="404.40814 43.868767 444.602354 43.868767 444.602354 85.467194 404.40814 85.467194"></polygon>
                <polygon id="Shape" fill="#999999" fill-rule="nonzero" points="524.9908 43.868767 565.185075 43.868767 565.185075 85.467194 524.9908 85.467194"></polygon>
                <polygon id="Shape" fill="#999999" fill-rule="nonzero" points="685.7677 43.868767 725.961914 43.868767 725.961914 85.467194 685.7677 85.467194"></polygon>
                <polygon id="Shape" fill="#999999" fill-rule="nonzero" points="2.465879 85.46719 42.660109 85.46719 42.660109 127.06561 2.465879 127.06561 2.465879 85.46719"></polygon>
                <polygon id="Shape" fill="#B7B7B7" fill-rule="nonzero" points="42.660107 85.46719 82.854332 85.46719 82.854332 127.06561 42.660107 127.06561 42.660107 85.46719"></polygon>
                <polygon id="Shape" fill="#B7B7B7" fill-rule="nonzero" points="82.85433 85.46719 123.04855 85.46719 123.04855 127.06561 82.85433 127.06561 82.85433 85.46719"></polygon>
                <polygon id="Shape" fill="#999999" fill-rule="nonzero" points="123.04855 85.46719 163.24278 85.46719 163.24278 127.06561 123.04855 127.06561 123.04855 85.46719"></polygon>
                <polygon id="Shape" fill="#666666" fill-rule="nonzero" points="203.43701 85.46719 243.63124 85.46719 243.63124 127.06561 203.43701 127.06561 203.43701 85.46719"></polygon>
                <polygon id="Shape" fill="#666666" fill-rule="nonzero" points="364.2139 85.46719 404.408144 85.46719 404.408144 127.06561 364.2139 127.06561 364.2139 85.46719"></polygon>
                <polygon id="Shape" fill="#666666" fill-rule="nonzero" points="524.9908 85.46719 565.185075 85.46719 565.185075 127.06561 524.9908 127.06561 524.9908 85.46719"></polygon>
                <polygon id="Shape" fill="#B7B7B7" fill-rule="nonzero" points="565.18506 85.46719 605.379274 85.46719 605.379274 127.06561 565.18506 127.06561 565.18506 85.46719"></polygon>
                <polygon id="Shape" fill="#D9D9D9" fill-rule="nonzero" points="605.3793 85.46719 645.573514 85.46719 645.573514 127.06561 605.3793 127.06561 605.3793 85.46719"></polygon>
                <polygon id="Shape" fill="#666666" fill-rule="nonzero" points="685.7677 85.46719 725.961914 85.46719 725.961914 127.06561 685.7677 127.06561 685.7677 85.46719"></polygon>
                <polygon id="Shape" fill="#666666" fill-rule="nonzero" points="2.465879 127.06561 42.660109 127.06561 42.660109 168.664044 2.465879 168.664044"></polygon>
                <polygon id="Shape" fill="#999999" fill-rule="nonzero" points="203.43701 127.06561 243.63124 127.06561 243.63124 168.664044 203.43701 168.664044"></polygon>
                <polygon id="Shape" fill="#999999" fill-rule="nonzero" points="324.01968 127.06561 364.213894 127.06561 364.213894 168.664044 324.01968 168.664044"></polygon>
                <polygon id="Shape" fill="#999999" fill-rule="nonzero" points="404.40814 127.06561 444.602354 127.06561 444.602354 168.664044 404.40814 168.664044"></polygon>
                <polygon id="Shape" fill="#999999" fill-rule="nonzero" points="524.9908 127.06561 565.185075 127.06561 565.185075 168.664044 524.9908 168.664044"></polygon>
                <polygon id="Shape" fill="#999999" fill-rule="nonzero" points="685.7677 127.06561 725.961914 127.06561 725.961914 168.664044 685.7677 168.664044"></polygon>
                <polygon id="Shape" fill="#999999" fill-rule="nonzero" points="2.465879 168.66405 42.660109 168.66405 42.660109 210.26247 2.465879 210.26247"></polygon>
                <polygon id="Shape" fill="#CCCCCC" fill-rule="nonzero" points="203.43701 168.66405 243.63124 168.66405 243.63124 210.26247 203.43701 210.26247"></polygon>
                <polygon id="Shape" fill="#CCCCCC" fill-rule="nonzero" points="283.82547 168.66405 324.019684 168.66405 324.019684 210.26247 283.82547 210.26247"></polygon>
                <polygon id="Shape" fill="#B7B7B7" fill-rule="nonzero" points="444.60236 168.66405 484.796604 168.66405 484.796604 210.26247 444.60236 210.26247"></polygon>
                <polygon id="Shape" fill="#B7B7B7" fill-rule="nonzero" points="524.9908 168.66405 565.185075 168.66405 565.185075 210.26247 524.9908 210.26247"></polygon>
                <polygon id="Shape" fill="#CCCCCC" fill-rule="nonzero" points="565.18506 168.66405 605.379274 168.66405 605.379274 210.26247 565.18506 210.26247"></polygon>
                <polygon id="Shape" fill="#D9D9D9" fill-rule="nonzero" points="605.3793 168.66405 645.573514 168.66405 645.573514 210.26247 605.3793 210.26247"></polygon>
                <polygon id="Shape" fill="#CCCCCC" fill-rule="nonzero" points="685.7677 168.66405 725.961914 168.66405 725.961914 210.26247 685.7677 210.26247"></polygon>
                <polygon id="Shape" fill="#B7B7B7" fill-rule="nonzero" points="725.9619 168.66405 766.156175 168.66405 766.156175 210.26247 725.9619 210.26247"></polygon>
                <polygon id="Shape" fill="#CCCCCC" fill-rule="nonzero" points="766.1562 168.66405 806.350414 168.66405 806.350414 210.26247 766.1562 210.26247"></polygon>
                <path d="M2.465879,0.2703412 L2.465879,212.262471" id="Shape" stroke="#000000" stroke-width="4"></path>
                <path d="M42.660107,41.868767 L42.660107,83.467194" id="Shape" stroke="#000000" stroke-width="4"></path>
                <path d="M42.660107,125.06561 L42.660107,212.26246" id="Shape" stroke="#000000" stroke-width="4"></path>
                <path d="M123.04855,41.868767 L123.04855,87.467194" id="Shape" stroke="#000000" stroke-width="4"></path>
                <path d="M163.24278,0.2703412 L163.24278,129.065611" id="Shape" stroke="#000000" stroke-width="4"></path>
                <path d="M203.43701,0.2703412 L203.43701,212.262471" id="Shape" stroke="#000000" stroke-width="4"></path>
                <path d="M243.63124,0.2703412 L243.63124,212.262471" id="Shape" stroke="#000000" stroke-width="4"></path>
                <path d="M283.82547,0.2703412 L283.82547,45.8687682" id="Shape" stroke="#000000" stroke-width="4"></path>
                <path d="M283.82547,166.66405 L283.82547,212.26247" id="Shape" stroke="#000000" stroke-width="4"></path>
                <path d="M324.01968,0.2703412 L324.01968,87.4671912" id="Shape" stroke="#000000" stroke-width="4"></path>
                <path d="M324.01968,125.06561 L324.01968,212.26246" id="Shape" stroke="#000000" stroke-width="4"></path>
                <path d="M364.2139,41.868767 L364.2139,170.664057" id="Shape" stroke="#000000" stroke-width="4"></path>
                <path d="M404.40814,41.868767 L404.40814,170.664057" id="Shape" stroke="#000000" stroke-width="4"></path>
                <path d="M444.60236,0.2703412 L444.60236,87.4671912" id="Shape" stroke="#000000" stroke-width="4"></path>
                <path d="M444.60236,125.06561 L444.60236,212.26246" id="Shape" stroke="#000000" stroke-width="4"></path>
                <path d="M484.7966,0.2703412 L484.7966,45.8687682" id="Shape" stroke="#000000" stroke-width="4"></path>
                <path d="M484.7966,166.66405 L484.7966,212.26247" id="Shape" stroke="#000000" stroke-width="4"></path>
                <path d="M524.9908,0.2703412 L524.9908,212.262471" id="Shape" stroke="#000000" stroke-width="4"></path>
                <path d="M565.18506,41.868767 L565.18506,87.467194" id="Shape" stroke="#000000" stroke-width="4"></path>
                <path d="M565.18506,125.06561 L565.18506,170.664044" id="Shape" stroke="#000000" stroke-width="4"></path>
                <path d="M645.5735,0.2703412 L645.5735,45.8687682" id="Shape" stroke="#000000" stroke-width="4"></path>
                <path d="M645.5735,83.46719 L645.5735,129.06561" id="Shape" stroke="#000000" stroke-width="4"></path>
                <path d="M645.5735,166.66405 L645.5735,212.26247" id="Shape" stroke="#000000" stroke-width="4"></path>
                <path d="M685.7677,0.2703412 L685.7677,212.262471" id="Shape" stroke="#000000" stroke-width="4"></path>
                <path d="M725.9619,0.2703412 L725.9619,170.664041" id="Shape" stroke="#000000" stroke-width="4"></path>
                <path d="M806.3504,166.66405 L806.3504,212.26247" id="Shape" stroke="#000000" stroke-width="4"></path>
                <path d="M0.465879,2.2703414 L165.242779,2.2703414" id="Shape" stroke="#000000" stroke-width="4"></path>
                <path d="M201.43701,2.2703414 L245.63124,2.2703414" id="Shape" stroke="#000000" stroke-width="4"></path>
                <path d="M281.82547,2.2703414 L326.019684,2.2703414" id="Shape" stroke="#000000" stroke-width="4"></path>
                <path d="M442.60236,2.2703414 L486.796604,2.2703414" id="Shape" stroke="#000000" stroke-width="4"></path>
                <path d="M522.9908,2.2703414 L647.5735,2.2703414" id="Shape" stroke="#000000" stroke-width="4"></path>
                <path d="M683.7677,2.2703414 L727.961914,2.2703414" id="Shape" stroke="#000000" stroke-width="4"></path>
                <path d="M40.660107,43.868767 L125.048547,43.868767" id="Shape" stroke="#000000" stroke-width="4"></path>
                <path d="M281.82547,43.868767 L366.2139,43.868767" id="Shape" stroke="#000000" stroke-width="4"></path>
                <path d="M402.40814,43.868767 L486.7966,43.868767" id="Shape" stroke="#000000" stroke-width="4"></path>
                <path d="M563.18506,43.868767 L647.57349,43.868767" id="Shape" stroke="#000000" stroke-width="4"></path>
                <path d="M40.660107,85.46719 L125.048547,85.46719" id="Shape" stroke="#000000" stroke-width="4"></path>
                <path d="M322.01968,85.46719 L446.60235,85.46719" id="Shape" stroke="#000000" stroke-width="4"></path>
                <path d="M563.18506,85.46719 L647.57349,85.46719" id="Shape" stroke="#000000" stroke-width="4"></path>
                <path d="M40.660107,127.06561 L165.242777,127.06561" id="Shape" stroke="#000000" stroke-width="4"></path>
                <path d="M322.01968,127.06561 L446.60235,127.06561" id="Shape" stroke="#000000" stroke-width="4"></path>
                <path d="M563.18506,127.06561 L647.57349,127.06561" id="Shape" stroke="#000000" stroke-width="4"></path>
                <path d="M281.82547,168.66405 L366.2139,168.66405" id="Shape" stroke="#000000" stroke-width="4"></path>
                <path d="M402.40814,168.66405 L486.7966,168.66405" id="Shape" stroke="#000000" stroke-width="4"></path>
                <path d="M563.18506,168.66405 L647.57349,168.66405" id="Shape" stroke="#000000" stroke-width="4"></path>
                <path d="M723.9619,168.66405 L808.35039,168.66405" id="Shape" stroke="#000000" stroke-width="4"></path>
                <path d="M0.465879,210.26247 L44.660109,210.26247" id="Shape" stroke="#000000" stroke-width="4"></path>
                <path d="M201.43701,210.26247 L245.63124,210.26247" id="Shape" stroke="#000000" stroke-width="4"></path>
                <path d="M281.82547,210.26247 L326.019684,210.26247" id="Shape" stroke="#000000" stroke-width="4"></path>
                <path d="M442.60236,210.26247 L486.796604,210.26247" id="Shape" stroke="#000000" stroke-width="4"></path>
                <path d="M522.9908,211.26247 L647.5735,211.26247" id="Shape" stroke="#000000" stroke-width="4"></path>
                <path d="M683.7677,210.26247 L808.3504,210.26247" id="Shape" stroke="#000000" stroke-width="4"></path>
            </g>
        </g>
    </g>
</svg>